<mxfile host="app.diagrams.net" modified="2024-07-06T20:25:47.520Z" agent="Mozilla/5.0 (Windows NT 10.0; Win64; x64) AppleWebKit/537.36 (KHTML, like Gecko) Chrome/126.0.0.0 Safari/537.36" version="24.6.4" etag="rPmxaH8orfVTGgV5C-Sc" type="github">
  <diagram name="Page-1" id="zDXhihBX3ycy5GxywMYj">
    <mxGraphModel>
      <root>
        <mxCell id="0" />
        <mxCell id="1" parent="0" />
      </root>
    </mxGraphModel>
  </diagram>
</mxfile>
